<mxfile host="Electron" modified="2023-07-19T15:07:45.362Z" agent="Mozilla/5.0 (Windows NT 10.0; Win64; x64) AppleWebKit/537.36 (KHTML, like Gecko) draw.io/21.6.1 Chrome/112.0.5615.204 Electron/24.6.1 Safari/537.36" etag="RPxRbmLGj-HTwGb1l5N5" version="21.6.1" type="device">
  <diagram name="Page-1" id="z85V0FOpRt81y0zWxN51">
    <mxGraphModel dx="2284" dy="836" grid="1" gridSize="10" guides="1" tooltips="1" connect="1" arrows="1" fold="1" page="1" pageScale="1" pageWidth="850" pageHeight="1100" math="0" shadow="0">
      <root>
        <mxCell id="0" />
        <mxCell id="1" parent="0" />
        <mxCell id="AcvJJGqYyZeYbBTQb1Vr-2" value="" style="verticalLabelPosition=bottom;sketch=0;aspect=fixed;html=1;verticalAlign=top;strokeColor=none;align=center;outlineConnect=0;shape=mxgraph.citrix.laptop_2;" parent="1" vertex="1">
          <mxGeometry x="-50" y="358.5" width="116" height="86.5" as="geometry" />
        </mxCell>
        <mxCell id="AcvJJGqYyZeYbBTQb1Vr-3" value="" style="verticalLabelPosition=bottom;sketch=0;aspect=fixed;html=1;verticalAlign=top;strokeColor=none;align=center;outlineConnect=0;shape=mxgraph.citrix.laptop_2;" parent="1" vertex="1">
          <mxGeometry x="930" y="221.5" width="116" height="86.5" as="geometry" />
        </mxCell>
        <mxCell id="AcvJJGqYyZeYbBTQb1Vr-4" value="" style="verticalLabelPosition=bottom;sketch=0;aspect=fixed;html=1;verticalAlign=top;strokeColor=none;align=center;outlineConnect=0;shape=mxgraph.citrix.laptop_2;" parent="1" vertex="1">
          <mxGeometry x="930" y="528.5" width="116" height="86.5" as="geometry" />
        </mxCell>
        <mxCell id="AcvJJGqYyZeYbBTQb1Vr-5" value="" style="verticalLabelPosition=bottom;sketch=0;aspect=fixed;html=1;verticalAlign=top;strokeColor=none;align=center;outlineConnect=0;shape=mxgraph.citrix.cloud;" parent="1" vertex="1">
          <mxGeometry x="450" y="370" width="95" height="62" as="geometry" />
        </mxCell>
        <mxCell id="AcvJJGqYyZeYbBTQb1Vr-7" value="" style="verticalLabelPosition=bottom;sketch=0;aspect=fixed;html=1;verticalAlign=top;strokeColor=none;align=center;outlineConnect=0;shape=mxgraph.citrix.license_server;" parent="1" vertex="1">
          <mxGeometry x="680" y="530" width="65" height="85" as="geometry" />
        </mxCell>
        <mxCell id="AcvJJGqYyZeYbBTQb1Vr-8" value="" style="verticalLabelPosition=bottom;sketch=0;aspect=fixed;html=1;verticalAlign=top;strokeColor=none;align=center;outlineConnect=0;shape=mxgraph.citrix.license_server;" parent="1" vertex="1">
          <mxGeometry x="680" y="221.5" width="65" height="85" as="geometry" />
        </mxCell>
        <mxCell id="AcvJJGqYyZeYbBTQb1Vr-9" value="" style="verticalLabelPosition=bottom;sketch=0;aspect=fixed;html=1;verticalAlign=top;strokeColor=none;align=center;outlineConnect=0;shape=mxgraph.citrix.license_server;" parent="1" vertex="1">
          <mxGeometry x="250" y="358.5" width="65" height="85" as="geometry" />
        </mxCell>
        <mxCell id="AcvJJGqYyZeYbBTQb1Vr-10" value="" style="endArrow=none;html=1;rounded=0;" parent="1" source="AcvJJGqYyZeYbBTQb1Vr-16" target="AcvJJGqYyZeYbBTQb1Vr-5" edge="1">
          <mxGeometry width="50" height="50" relative="1" as="geometry">
            <mxPoint x="400" y="450" as="sourcePoint" />
            <mxPoint x="450" y="400" as="targetPoint" />
          </mxGeometry>
        </mxCell>
        <mxCell id="AcvJJGqYyZeYbBTQb1Vr-11" value="" style="endArrow=none;html=1;rounded=0;" parent="1" source="AcvJJGqYyZeYbBTQb1Vr-17" target="AcvJJGqYyZeYbBTQb1Vr-5" edge="1">
          <mxGeometry width="50" height="50" relative="1" as="geometry">
            <mxPoint x="400" y="450" as="sourcePoint" />
            <mxPoint x="450" y="400" as="targetPoint" />
          </mxGeometry>
        </mxCell>
        <mxCell id="AcvJJGqYyZeYbBTQb1Vr-12" value="" style="endArrow=none;html=1;rounded=0;" parent="1" source="AcvJJGqYyZeYbBTQb1Vr-20" target="AcvJJGqYyZeYbBTQb1Vr-5" edge="1">
          <mxGeometry width="50" height="50" relative="1" as="geometry">
            <mxPoint x="400" y="450" as="sourcePoint" />
            <mxPoint x="450" y="400" as="targetPoint" />
          </mxGeometry>
        </mxCell>
        <mxCell id="AcvJJGqYyZeYbBTQb1Vr-13" value="" style="endArrow=none;html=1;rounded=0;" parent="1" source="AcvJJGqYyZeYbBTQb1Vr-24" target="AcvJJGqYyZeYbBTQb1Vr-8" edge="1">
          <mxGeometry width="50" height="50" relative="1" as="geometry">
            <mxPoint x="400" y="450" as="sourcePoint" />
            <mxPoint x="450" y="400" as="targetPoint" />
          </mxGeometry>
        </mxCell>
        <mxCell id="AcvJJGqYyZeYbBTQb1Vr-14" value="" style="endArrow=none;html=1;rounded=0;" parent="1" source="AcvJJGqYyZeYbBTQb1Vr-26" target="AcvJJGqYyZeYbBTQb1Vr-4" edge="1">
          <mxGeometry width="50" height="50" relative="1" as="geometry">
            <mxPoint x="400" y="450" as="sourcePoint" />
            <mxPoint x="450" y="400" as="targetPoint" />
          </mxGeometry>
        </mxCell>
        <mxCell id="AcvJJGqYyZeYbBTQb1Vr-15" value="" style="endArrow=none;html=1;rounded=0;" parent="1" source="AcvJJGqYyZeYbBTQb1Vr-22" target="AcvJJGqYyZeYbBTQb1Vr-9" edge="1">
          <mxGeometry width="50" height="50" relative="1" as="geometry">
            <mxPoint x="400" y="450" as="sourcePoint" />
            <mxPoint x="450" y="400" as="targetPoint" />
          </mxGeometry>
        </mxCell>
        <mxCell id="AcvJJGqYyZeYbBTQb1Vr-18" value="" style="endArrow=none;html=1;rounded=0;" parent="1" source="AcvJJGqYyZeYbBTQb1Vr-8" target="AcvJJGqYyZeYbBTQb1Vr-17" edge="1">
          <mxGeometry width="50" height="50" relative="1" as="geometry">
            <mxPoint x="680" y="285" as="sourcePoint" />
            <mxPoint x="545" y="371" as="targetPoint" />
          </mxGeometry>
        </mxCell>
        <mxCell id="AcvJJGqYyZeYbBTQb1Vr-17" value="123.0.2.0/30" style="text;html=1;align=center;verticalAlign=middle;resizable=0;points=[];autosize=1;strokeColor=none;fillColor=none;" parent="1" vertex="1">
          <mxGeometry x="560" y="320" width="90" height="30" as="geometry" />
        </mxCell>
        <mxCell id="AcvJJGqYyZeYbBTQb1Vr-19" value="" style="endArrow=none;html=1;rounded=0;" parent="1" source="AcvJJGqYyZeYbBTQb1Vr-9" target="AcvJJGqYyZeYbBTQb1Vr-16" edge="1">
          <mxGeometry width="50" height="50" relative="1" as="geometry">
            <mxPoint x="315" y="401" as="sourcePoint" />
            <mxPoint x="450" y="401" as="targetPoint" />
          </mxGeometry>
        </mxCell>
        <mxCell id="AcvJJGqYyZeYbBTQb1Vr-16" value="123.0.1.0/30" style="text;html=1;align=center;verticalAlign=middle;resizable=0;points=[];autosize=1;strokeColor=none;fillColor=none;" parent="1" vertex="1">
          <mxGeometry x="335" y="385.25" width="90" height="30" as="geometry" />
        </mxCell>
        <mxCell id="AcvJJGqYyZeYbBTQb1Vr-21" value="" style="endArrow=none;html=1;rounded=0;" parent="1" source="AcvJJGqYyZeYbBTQb1Vr-7" target="AcvJJGqYyZeYbBTQb1Vr-20" edge="1">
          <mxGeometry width="50" height="50" relative="1" as="geometry">
            <mxPoint x="680" y="547" as="sourcePoint" />
            <mxPoint x="536" y="432" as="targetPoint" />
          </mxGeometry>
        </mxCell>
        <mxCell id="AcvJJGqYyZeYbBTQb1Vr-20" value="123.0.3.0/30" style="text;html=1;align=center;verticalAlign=middle;resizable=0;points=[];autosize=1;strokeColor=none;fillColor=none;" parent="1" vertex="1">
          <mxGeometry x="560" y="470" width="90" height="30" as="geometry" />
        </mxCell>
        <mxCell id="AcvJJGqYyZeYbBTQb1Vr-23" value="" style="endArrow=none;html=1;rounded=0;" parent="1" source="AcvJJGqYyZeYbBTQb1Vr-2" target="AcvJJGqYyZeYbBTQb1Vr-22" edge="1">
          <mxGeometry width="50" height="50" relative="1" as="geometry">
            <mxPoint x="96" y="400" as="sourcePoint" />
            <mxPoint x="250" y="401" as="targetPoint" />
          </mxGeometry>
        </mxCell>
        <mxCell id="AcvJJGqYyZeYbBTQb1Vr-22" value="192.168.1.0/24" style="text;html=1;align=center;verticalAlign=middle;resizable=0;points=[];autosize=1;strokeColor=none;fillColor=none;" parent="1" vertex="1">
          <mxGeometry x="100" y="386.75" width="110" height="30" as="geometry" />
        </mxCell>
        <mxCell id="AcvJJGqYyZeYbBTQb1Vr-25" value="" style="endArrow=none;html=1;rounded=0;" parent="1" source="AcvJJGqYyZeYbBTQb1Vr-3" target="AcvJJGqYyZeYbBTQb1Vr-24" edge="1">
          <mxGeometry width="50" height="50" relative="1" as="geometry">
            <mxPoint x="870" y="263" as="sourcePoint" />
            <mxPoint x="745" y="264" as="targetPoint" />
          </mxGeometry>
        </mxCell>
        <mxCell id="AcvJJGqYyZeYbBTQb1Vr-24" value="&lt;span style=&quot;color: rgb(0, 0, 0); font-family: Helvetica; font-size: 12px; font-style: normal; font-variant-ligatures: normal; font-variant-caps: normal; font-weight: 400; letter-spacing: normal; orphans: 2; text-align: center; text-indent: 0px; text-transform: none; widows: 2; word-spacing: 0px; -webkit-text-stroke-width: 0px; background-color: rgb(251, 251, 251); text-decoration-thickness: initial; text-decoration-style: initial; text-decoration-color: initial; float: none; display: inline !important;&quot;&gt;192.168.2.0/24&lt;/span&gt;" style="text;whiteSpace=wrap;html=1;" parent="1" vertex="1">
          <mxGeometry x="780" y="244" width="120" height="40" as="geometry" />
        </mxCell>
        <mxCell id="AcvJJGqYyZeYbBTQb1Vr-27" value="" style="endArrow=none;html=1;rounded=0;" parent="1" source="AcvJJGqYyZeYbBTQb1Vr-7" target="AcvJJGqYyZeYbBTQb1Vr-26" edge="1">
          <mxGeometry width="50" height="50" relative="1" as="geometry">
            <mxPoint x="745" y="573" as="sourcePoint" />
            <mxPoint x="870" y="573" as="targetPoint" />
          </mxGeometry>
        </mxCell>
        <mxCell id="AcvJJGqYyZeYbBTQb1Vr-26" value="&lt;span style=&quot;color: rgb(0, 0, 0); font-family: Helvetica; font-size: 12px; font-style: normal; font-variant-ligatures: normal; font-variant-caps: normal; font-weight: 400; letter-spacing: normal; orphans: 2; text-align: center; text-indent: 0px; text-transform: none; widows: 2; word-spacing: 0px; -webkit-text-stroke-width: 0px; background-color: rgb(251, 251, 251); text-decoration-thickness: initial; text-decoration-style: initial; text-decoration-color: initial; float: none; display: inline !important;&quot;&gt;192.168.3.0/24&lt;/span&gt;" style="text;whiteSpace=wrap;html=1;" parent="1" vertex="1">
          <mxGeometry x="780" y="552.5" width="120" height="40" as="geometry" />
        </mxCell>
        <mxCell id="AcvJJGqYyZeYbBTQb1Vr-28" value="&lt;font style=&quot;font-size: 14px;&quot;&gt;ISP&lt;/font&gt;" style="text;html=1;align=center;verticalAlign=middle;resizable=0;points=[];autosize=1;strokeColor=none;fillColor=none;" parent="1" vertex="1">
          <mxGeometry x="477.5" y="386.75" width="40" height="30" as="geometry" />
        </mxCell>
        <mxCell id="K79aIrr5QdMZX71g9-PF-1" value="192.168.1.100/24" style="text;html=1;align=center;verticalAlign=middle;resizable=0;points=[];autosize=1;strokeColor=none;fillColor=none;" vertex="1" parent="1">
          <mxGeometry x="-50" y="450" width="120" height="30" as="geometry" />
        </mxCell>
        <mxCell id="K79aIrr5QdMZX71g9-PF-2" value="192.168.3.100/24" style="text;html=1;align=center;verticalAlign=middle;resizable=0;points=[];autosize=1;strokeColor=none;fillColor=none;" vertex="1" parent="1">
          <mxGeometry x="926" y="320" width="120" height="30" as="geometry" />
        </mxCell>
        <mxCell id="K79aIrr5QdMZX71g9-PF-3" value="192.168.3.100/24" style="text;html=1;align=center;verticalAlign=middle;resizable=0;points=[];autosize=1;strokeColor=none;fillColor=none;" vertex="1" parent="1">
          <mxGeometry x="926" y="630" width="120" height="30" as="geometry" />
        </mxCell>
      </root>
    </mxGraphModel>
  </diagram>
</mxfile>
